# xmcd
#
# Track frame offsets:
#	150
#	20615
#	39157
#	60470
#	80522
#	102290
#	120810
#	143635
#	156972
#	182167
#	203262
#	224870
#
# Disc length: 3248 seconds
#
# Revision: 4
# Processed by: cddbd v1.5.2PL0 Copyright (c) Steve Scherf et al.
# Submitted via: EZCDAudioConverter 8.0.2.1
#
DISCID=990cae0c
DTITLE=Ngọc Lan - Tình Gần
DYEAR=1998
DGENRE=Pop
TTITLE0=Bài không tên số 2, 3
TTITLE1=Chiều một mình qua phố
TTITLE2=Để quên con tim
TTITLE3=Buồn vương màu áo
TTITLE4=Tình khúc buồn
TTITLE5=Mười năm yêu em
TTITLE6=Người tình trăm năm
TTITLE7=Rồi như đá ngây ngô
TTITLE8=Tiếng mưa đêm
TTITLE9=Hạ trắng
TTITLE10=Dù tình yêu đã mất
TTITLE11=Bài không tên số 7
EXTD=
EXTT0=
EXTT1=
EXTT2=
EXTT3=
EXTT4=
EXTT5=
EXTT6=
EXTT7=
EXTT8=
EXTT9=
EXTT10=
EXTT11=
PLAYORDER=
